<svg xmlns="http://www.w3.org/2000/svg" width="640" height="338" viewBox="0 0 640 338">
  <rect width="640" height="338" fill="#fff"/>
  <g>
    <g>
      <path d="M102.225,128.116H127.6l24.743,61.043,24.493-61.043h25.245v88.172H180.6V163.41l-19.72,52.878H143.548l-19.845-53v53H102.225Z" transform="translate(0 -71)" fill="#03190d"/>
      <path d="M246.765,217.293c-20.6,0-36.173-13.816-36.173-36.048S226.543,145.2,247.016,145.2c20.6,0,36.425,13.816,36.425,36.047S267.364,217.293,246.765,217.293Zm0-18.589c7.661,0,14.821-5.652,14.821-17.459,0-11.932-7.034-17.458-14.57-17.458-7.787,0-14.57,5.526-14.57,17.458C232.446,193.052,238.978,198.7,246.765,198.7Z" transform="translate(0 -71)" fill="#14c96a"/>
      <path d="M322.952,217.293c-20.6,0-36.173-13.816-36.173-36.048S302.731,145.2,323.2,145.2c20.6,0,36.424,13.816,36.424,36.047S343.551,217.293,322.952,217.293Zm0-18.589c7.662,0,14.822-5.652,14.822-17.459,0-11.932-7.035-17.458-14.57-17.458-7.788,0-14.57,5.526-14.57,17.458C308.634,193.052,315.165,198.7,322.952,198.7Z" transform="translate(0 -71)" fill="#14c96a"/>
      <path d="M394.216,145.2c9.3,0,17.333,4.27,21.6,10.676V123.343H437.3v92.945H415.819V206.24c-3.894,6.406-11.3,11.053-21.6,11.053-17.207,0-30.9-14.067-30.9-36.173S377.009,145.2,394.216,145.2Zm6.28,18.714c-8.039,0-15.324,6.029-15.324,17.208s7.285,17.459,15.324,17.459c8.164,0,15.323-6.155,15.323-17.334S408.66,163.912,400.5,163.912Z" transform="translate(0 -71)" fill="#03190d"/>
      <path d="M134.848,323.034c-18.894-1.653-32.837-12.329-31.908-30.151l22.772,1.992c.035,6.812,4,10.438,10.01,10.963,6.256.547,10.534-2.23,10.983-7.36,1.423-16.267-43.261-11.351-40.285-42.484,1.456-16.642,15.9-24.708,34.3-23.1,19.143,1.676,31.2,12.312,30.608,29.156l-23.148-2.025c.117-5.664-3.591-9.393-9.336-10.021-5.119-.574-9.227,1.714-9.709,7.22-1.336,15.264,42.684,12.182,40.111,41.585C167.952,313.575,155.368,324.83,134.848,323.034Z" transform="translate(0 -71)" fill="#03190d"/>
      <path d="M172.179,256.943l21.4-1.873,14.253,49.06,7.393-50.954,22.647-1.982L254.1,299.828l5.413-50.527,20.145-1.763L266.874,319.01l-23.648,2.069-14.974-44.331-7.423,46.29L197.306,325.1Z" transform="translate(0 -71)" fill="#03190d"/>
      <path d="M287,251.311l21.4,1.872L302.282,323l-21.4-1.873Z" transform="translate(0 -71)" fill="#03190d"/>
      <path d="M366.849,282.948c-.833-9.51-6.547-14.305-14.68-13.593s-12.929,6.427-12.1,15.936L343.39,323.2l-21.4,1.872-6.109-69.819,21.4-1.872.81,9.26c3.739-6.253,10.886-11.04,20.27-11.861,16.141-1.412,27.864,8.657,29.506,27.426l3.57,40.79-21.271,1.861Z" transform="translate(0 -71)" fill="#03190d"/>
      <path d="M429.2,250.528c10.26.9,17.363,6.185,20.569,12.77l.864-9.885,21.4,1.872-6.1,69.693C464.3,343.622,452.149,358.57,428,356.457c-20.771-1.816-33.364-13.509-33.785-30.315l21.146,1.85c.916,5.376,5.876,9.214,13.258,9.86,8.133.712,14.886-2.984,15.916-14.746l.865-9.885c-4.416,5.792-12.225,10.026-22.485,9.128-17.141-1.5-29.554-16.707-27.627-38.728S412.057,249.028,429.2,250.528Zm4.625,19.192c-8.008-.7-15.79,4.67-16.765,15.806s5.736,18.026,13.744,18.727c8.133.712,15.8-4.795,16.775-15.931S441.957,270.431,433.824,269.72Z" transform="translate(0 -71)" fill="#03190d"/>
      <path d="M511.281,322.956c-18.643,1.631-32.064-7.659-34.247-21.085l21.146-1.85c.926,4.836,5.59,7.706,11.472,7.191,5.505-.481,8.164-3.236,7.89-6.363-.986-11.262-38.311.2-40.556-25.45-1.039-11.887,8.241-22.534,26.509-24.132,18.018-1.577,28.9,7.558,31.484,21.2L515.21,274.2c-1.042-4.7-4.944-7.51-10.95-6.985-5,.439-7.582,2.681-7.286,6.059.974,11.137,38.071-.053,40.723,25.94C538.759,311.348,528.8,321.423,511.281,322.956Z" transform="translate(0 -71)" fill="#03190d"/>
    </g>
    <path d="M286.749,232.759c.569-6.507,6.148-11.188,13.78-10.52,7.508.657,12.189,6.236,11.62,12.742-.558,6.382-6.138,11.063-13.645,10.406C290.872,244.719,286.191,239.14,286.749,232.759Z" transform="translate(0 -71)" fill="#14c96a"/>
  </g>
</svg>
