<svg xmlns="http://www.w3.org/2000/svg" width="1080" height="1080" viewBox="0 0 1080 1080">
  <rect width="1080" height="1080" fill="#03190d"/>
  <g>
    <rect x="257" y="267.568" width="566" height="136.135" fill="#14c96a" stroke="#14c96a" stroke-miterlimit="10" stroke-width="10"/>
    <rect x="257" y="406.973" width="81.459" height="81.459" fill="none" stroke="#14c96a" stroke-miterlimit="10" stroke-width="10"/>
    <rect x="336.352" y="406.973" width="81.459" height="81.459" fill="none" stroke="#14c96a" stroke-miterlimit="10" stroke-width="10"/>
    <rect x="415.705" y="406.973" width="81.459" height="81.459" fill="none" stroke="#14c96a" stroke-miterlimit="10" stroke-width="10"/>
    <rect x="497.164" y="406.973" width="81.459" height="81.459" fill="none" stroke="#14c96a" stroke-miterlimit="10" stroke-width="10"/>
    <rect x="578.623" y="406.973" width="81.459" height="81.459" fill="none" stroke="#14c96a" stroke-miterlimit="10" stroke-width="10"/>
    <rect x="660.082" y="406.973" width="81.459" height="81.459" fill="none" stroke="#14c96a" stroke-miterlimit="10" stroke-width="10"/>
    <rect x="741.541" y="406.973" width="81.459" height="81.459" fill="none" stroke="#14c96a" stroke-miterlimit="10" stroke-width="10"/>
    <rect x="257" y="487.973" width="81.459" height="81.459" fill="none" stroke="#14c96a" stroke-miterlimit="10" stroke-width="10"/>
    <rect x="336.352" y="487.973" width="81.459" height="81.459" fill="none" stroke="#14c96a" stroke-miterlimit="10" stroke-width="10"/>
    <rect x="415.705" y="487.973" width="81.459" height="81.459" fill="none" stroke="#14c96a" stroke-miterlimit="10" stroke-width="10"/>
    <rect x="497.164" y="487.973" width="81.459" height="81.459" fill="none" stroke="#14c96a" stroke-miterlimit="10" stroke-width="10"/>
    <rect x="578.623" y="487.973" width="81.459" height="81.459" fill="none" stroke="#14c96a" stroke-miterlimit="10" stroke-width="10"/>
    <rect x="660.082" y="487.973" width="81.459" height="81.459" fill="none" stroke="#14c96a" stroke-miterlimit="10" stroke-width="10"/>
    <rect x="741.541" y="487.973" width="81.459" height="81.459" fill="none" stroke="#14c96a" stroke-miterlimit="10" stroke-width="10"/>
    <rect x="257" y="568.973" width="81.459" height="81.459" fill="none" stroke="#14c96a" stroke-miterlimit="10" stroke-width="10"/>
    <rect x="336.352" y="568.973" width="81.459" height="81.459" fill="none" stroke="#14c96a" stroke-miterlimit="10" stroke-width="10"/>
    <rect x="415.705" y="568.973" width="81.459" height="81.459" fill="none" stroke="#14c96a" stroke-miterlimit="10" stroke-width="10"/>
    <rect x="497.164" y="568.973" width="81.459" height="81.459" fill="none" stroke="#14c96a" stroke-miterlimit="10" stroke-width="10"/>
    <rect x="578.623" y="568.973" width="81.459" height="81.459" fill="none" stroke="#14c96a" stroke-miterlimit="10" stroke-width="10"/>
    <rect x="660.082" y="568.973" width="81.459" height="81.459" fill="none" stroke="#14c96a" stroke-miterlimit="10" stroke-width="10"/>
    <rect x="741.541" y="568.973" width="81.459" height="81.459" fill="none" stroke="#14c96a" stroke-miterlimit="10" stroke-width="10"/>
    <rect x="257" y="649.973" width="81.459" height="81.459" fill="none" stroke="#14c96a" stroke-miterlimit="10" stroke-width="10"/>
    <rect x="336.352" y="649.973" width="81.459" height="81.459" fill="none" stroke="#14c96a" stroke-miterlimit="10" stroke-width="10"/>
    <rect x="415.705" y="649.973" width="81.459" height="81.459" fill="none" stroke="#14c96a" stroke-miterlimit="10" stroke-width="10"/>
    <rect x="497.164" y="649.973" width="81.459" height="81.459" fill="none" stroke="#14c96a" stroke-miterlimit="10" stroke-width="10"/>
    <rect x="578.623" y="649.973" width="81.459" height="81.459" fill="none" stroke="#14c96a" stroke-miterlimit="10" stroke-width="10"/>
    <rect x="660.082" y="649.973" width="81.459" height="81.459" fill="none" stroke="#14c96a" stroke-miterlimit="10" stroke-width="10"/>
    <rect x="741.541" y="649.973" width="81.459" height="81.459" fill="none" stroke="#14c96a" stroke-miterlimit="10" stroke-width="10"/>
    <rect x="257" y="730.973" width="81.459" height="81.459" fill="none" stroke="#14c96a" stroke-miterlimit="10" stroke-width="10"/>
    <rect x="336.352" y="730.973" width="81.459" height="81.459" fill="none" stroke="#14c96a" stroke-miterlimit="10" stroke-width="10"/>
    <rect x="415.705" y="730.973" width="81.459" height="81.459" fill="none" stroke="#14c96a" stroke-miterlimit="10" stroke-width="10"/>
    <rect x="497.164" y="730.973" width="81.459" height="81.459" fill="none" stroke="#14c96a" stroke-miterlimit="10" stroke-width="10"/>
    <rect x="578.623" y="730.973" width="81.459" height="81.459" fill="none" stroke="#14c96a" stroke-miterlimit="10" stroke-width="10"/>
    <g>
      <path d="M321.835,308.862h12.313v34.419c0,10.873-6.625,16.633-16.633,16.633-10.369,0-17.642-6.048-17.642-17.425h12.241c0,4.32,1.872,6.408,5.04,6.408,2.952,0,4.681-1.872,4.681-5.616Z"/>
      <path d="M382.05,359.41H369.737v-5.472a14.64,14.64,0,0,1-12.17,5.9c-9.288,0-15.552-6.408-15.552-17.137V319.23h12.241v21.818c0,5.473,3.1,8.5,7.7,8.5,4.753,0,7.777-3.024,7.777-8.5V319.23H382.05Z"/>
      <path d="M417.22,337.592c0-5.472-3.025-8.5-7.7-8.5s-7.705,3.024-7.705,8.5V359.41H389.5V319.23h12.313v5.329a14.732,14.732,0,0,1,12.168-5.76c9.29,0,15.482,6.336,15.482,17.137V359.41H417.22Z"/>
      <path d="M454.552,359.986c-11.81,0-20.306-7.921-20.306-20.666s8.353-20.665,20.306-20.665c11.736,0,20.017,7.776,20.017,20.017a31.33,31.33,0,0,1-.215,3.6H446.486c.433,5.257,3.673,7.706,7.633,7.706a6.548,6.548,0,0,0,6.409-3.889h13.1C471.688,353.938,464.561,359.986,454.552,359.986Zm-7.993-24.554h15.409c0-4.392-3.456-6.912-7.561-6.912C450.375,328.52,447.278,330.968,446.559,335.432Z"/>
    </g>
  </g>
</svg>
