<svg xmlns="http://www.w3.org/2000/svg" width="1080" height="1080" viewBox="0 0 1080 1080">
  <g>
    <g>
      <path d="M344.125,652.228c-105.222,0-184.78-70.576-184.78-184.14S240.829,283.951,345.41,283.951c105.22,0,186.062,70.574,186.062,184.137S449.348,652.228,344.125,652.228Zm0-94.957c39.138,0,75.708-28.872,75.708-89.183,0-60.951-35.928-89.181-74.423-89.181-39.78,0-74.426,28.23-74.426,89.181C270.984,528.4,304.347,557.271,344.125,557.271Z" fill="#14c96a"/>
      <path d="M733.306,652.228c-105.221,0-184.78-70.576-184.78-184.14S630.01,283.951,734.59,283.951c105.221,0,186.065,70.574,186.065,184.137S838.53,652.228,733.306,652.228Zm0-94.957c39.14,0,75.71-28.872,75.71-89.183,0-60.951-35.932-89.181-74.426-89.181-39.781,0-74.425,28.23-74.425,89.181C660.165,528.4,693.528,557.271,733.306,557.271Z" fill="#14c96a"/>
    </g>
    <path d="M548.371,731.228c2.909-33.236,31.407-57.148,70.394-53.736,38.351,3.356,62.263,31.854,59.354,65.089-2.851,32.6-31.351,56.51-69.7,53.154C569.433,792.323,545.52,763.824,548.371,731.228Z" fill="#14c96a"/>
  </g>
</svg>
