<svg xmlns="http://www.w3.org/2000/svg" width="1080" height="1080" viewBox="0 0 1080 1080">
  <rect x="0.5" y="0.5" width="1080" height="1080" fill="#03190d"/>
  <g>
    <path d="M392.879,689.475h30.385L452.9,762.58l29.332-73.105h30.234v105.6H486.741V731.744L463.125,795.07H442.367L418.6,731.593V795.07H392.879Z" fill="#fff"/>
    <path d="M565.978,796.274c-24.669,0-43.32-16.547-43.32-43.171s19.1-43.17,43.621-43.17c24.669,0,43.622,16.546,43.622,43.17S590.647,796.274,565.978,796.274Zm0-22.263c9.176,0,17.75-6.768,17.75-20.908,0-14.29-8.423-20.908-17.449-20.908-9.326,0-17.448,6.618-17.448,20.908C548.831,767.243,556.653,774.011,565.978,774.011Z" fill="#14c96a"/>
    <path d="M657.22,796.274c-24.669,0-43.321-16.547-43.321-43.171s19.1-43.17,43.622-43.17c24.668,0,43.622,16.546,43.622,43.17S681.889,796.274,657.22,796.274Zm0-22.263c9.176,0,17.75-6.768,17.75-20.908,0-14.29-8.424-20.908-17.449-20.908-9.327,0-17.449,6.618-17.449,20.908C640.072,767.243,647.894,774.011,657.22,774.011Z" fill="#14c96a"/>
    <path d="M742.564,709.933c11.132,0,20.759,5.114,25.872,12.785V683.76h25.723V795.07H768.436V783.037c-4.663,7.671-13.538,13.237-25.872,13.237-20.607,0-37-16.848-37-43.321S721.957,709.933,742.564,709.933Zm7.521,22.412c-9.627,0-18.351,7.22-18.351,20.608s8.724,20.908,18.351,20.908c9.777,0,18.351-7.371,18.351-20.758S759.862,732.345,750.085,732.345Z" fill="#fff"/>
    <path d="M431.948,922.908c-22.627-1.98-39.325-14.766-38.213-36.109l27.272,2.386c.041,8.157,4.8,12.5,11.988,13.129,7.492.655,12.615-2.671,13.152-8.815,1.7-19.48-51.809-13.593-48.245-50.878,1.744-19.93,19.048-29.589,41.075-27.662,22.927,2.006,37.364,14.744,36.656,34.916l-27.721-2.425c.14-6.783-4.3-11.249-11.181-12-6.13-.687-11.051,2.053-11.628,8.647-1.6,18.281,51.118,14.589,48.037,49.8C471.593,911.58,456.522,925.059,431.948,922.908Z" fill="#fff"/>
    <path d="M476.655,843.757l25.623-2.242,17.069,58.753,8.854-61.021,27.123-2.374,19.44,58.244,6.483-60.512,24.125-2.111-15.31,85.6-28.321,2.478-17.933-53.091-8.89,55.437-28.171,2.465Z" fill="#fff"/>
    <path d="M614.158,837.012l25.624,2.242-7.316,83.615-25.624-2.243Z" fill="#fff"/>
    <path d="M709.79,874.9c-1-11.389-7.841-17.131-17.581-16.279s-15.483,7.7-14.486,19.085l3.973,45.4-25.624,2.242-7.316-83.614,25.623-2.242.971,11.089c4.478-7.489,13.036-13.221,24.274-14.2,19.331-1.691,33.371,10.368,35.338,32.845l4.274,48.849L713.763,920.3Z" fill="#fff"/>
    <path d="M784.46,836.076c12.288,1.075,20.794,7.406,24.633,15.292l1.035-11.838,25.625,2.242-7.3,83.464c-1.953,22.327-16.5,40.23-45.425,37.7-24.875-2.176-39.957-16.179-40.461-36.306l25.324,2.217c1.1,6.437,7.038,11.034,15.878,11.808,9.741.852,17.828-3.574,19.061-17.66l1.036-11.838c-5.288,6.936-14.64,12.007-26.927,10.932-20.529-1.8-35.394-20.009-33.086-46.381S763.931,834.279,784.46,836.076ZM790,859.059c-9.59-.839-18.91,5.593-20.077,18.929s6.869,21.589,16.459,22.428c9.74.853,18.923-5.743,20.09-19.079S799.739,859.911,790,859.059Z" fill="#fff"/>
    <path d="M882.76,922.814c-22.326,1.954-38.4-9.172-41.013-25.251l25.324-2.216c1.11,5.792,6.695,9.23,13.738,8.613,6.593-.577,9.778-3.876,9.45-7.621-1.181-13.487-45.881.239-48.569-30.479-1.245-14.236,9.869-26.986,31.746-28.9,21.579-1.888,34.615,9.051,37.7,25.39l-23.675,2.071c-1.247-5.628-5.92-8.994-13.113-8.365-5.994.525-9.081,3.21-8.727,7.256,1.167,13.337,45.594-.063,48.771,31.066C915.668,908.913,903.739,920.979,882.76,922.814Z" fill="#fff"/>
  </g>
  <path d="M613.863,814.8c.682-7.792,7.363-13.4,16.5-12.6,8.991.787,14.6,7.468,13.916,15.259-.669,7.643-7.351,13.249-16.341,12.462C618.8,829.118,613.194,822.437,613.863,814.8Z" fill="#14c96a"/>
  <g>
    <rect x="105.921" y="203.135" width="441.961" height="441.961" transform="translate(-108.365 112.215) rotate(-16.751)" fill="none" stroke="#14c96a" stroke-miterlimit="10" stroke-width="10"/>
    <path d="M51.724,276.615l26.982,89.644c35.139,116.746,158.267,182.9,275.013,147.762h0c116.746-35.139,182.9-158.266,147.762-275.012L474.5,149.365Z" fill="#14c96a" stroke="#14c96a" stroke-miterlimit="10" stroke-width="10"/>
  </g>
  <g>
    <rect x="536.446" y="166.812" width="441.961" height="441.961" transform="translate(127.355 -184.123) rotate(15.118)" fill="#03190d" stroke="#14c96a" stroke-miterlimit="10" stroke-width="10"/>
    <path d="M601.609,117.238l-24.416,90.376c-31.8,117.7,37.839,238.892,155.539,270.69h0c117.7,31.8,238.892-37.839,270.69-155.539l24.416-90.377Z" fill="#14c96a" stroke="#14c96a" stroke-miterlimit="10" stroke-width="10"/>
  </g>
</svg>
